<svg width="240" height="240" viewBox="0 0 311 311" fill="none" xmlns="http://www.w3.org/2000/svg">
<path d="M57.3601 264.36L35.522 19.4375H275.478L253.611 264.321L155.354 291.562L57.3601 264.36Z" fill="#E44F26"/>
<path d="M155.5 270.745L234.902 248.732L253.582 39.4678H155.5V270.745Z" fill="#F1662A"/>
<path d="M155.5 130.299H115.75L113.01 99.5394H155.5V69.4988H80.1797L80.8989 77.5653L88.2754 160.34H155.5V130.299V130.299ZM155.5 208.312L155.364 208.351L121.912 199.322L119.774 175.365H89.6166L93.8248 222.52L155.364 239.606L155.5 239.567V208.312Z" fill="#EBEBEB"/>
<path d="M155.393 130.299V160.34H192.383L188.903 199.302L155.393 208.341V239.596L216.981 222.52L217.428 217.447L224.484 138.366L225.222 130.299H155.393V130.299ZM155.393 69.4988V99.5394H227.953L228.556 92.7946L229.926 77.5653L230.645 69.4988H155.393V69.4988Z" fill="white"/>
</svg>
