<svg width="302" height="240" viewBox="0 0 302 240" fill="none" xmlns="http://www.w3.org/2000/svg">
<g clip-path="url(#clip0_7_2)">
<path d="M62.5571 -7.62939e-06C45.3723 -7.62939e-06 32.6559 15.0412 33.2253 31.3529C33.7723 47.0235 33.0618 67.3212 27.9523 83.8729C22.8276 100.473 14.1594 110.988 0.00175858 112.339V127.581C14.1594 128.932 22.8276 139.447 27.9523 156.048C33.0618 172.6 33.7723 192.895 33.2253 208.567C32.6559 224.876 45.3723 239.92 62.5594 239.92H238.645C255.831 239.92 268.544 224.879 267.975 208.567C267.429 192.896 268.138 172.6 273.248 156.048C278.376 139.448 287.021 128.931 301.178 127.581V112.339C287.021 110.988 278.376 100.473 273.249 83.8729C268.138 67.3235 267.429 47.0247 267.975 31.3529C268.544 15.0435 255.831 -7.62939e-06 238.645 -7.62939e-06H62.5547H62.5571V-7.62939e-06ZM204.19 147.686C204.19 170.147 187.437 183.768 159.635 183.768H112.305C110.952 183.768 109.654 183.23 108.696 182.273C107.739 181.315 107.202 180.017 107.202 178.664V61.2565C107.202 60.586 107.334 59.9221 107.59 59.3026C107.846 58.6832 108.222 58.1203 108.696 57.6461C109.171 57.172 109.733 56.7959 110.353 56.5393C110.972 56.2827 111.636 56.1506 112.306 56.1506H159.364C182.546 56.1506 197.761 68.7094 197.761 87.9894C197.761 101.522 187.525 113.638 174.486 115.759V116.466C192.238 118.413 204.19 130.706 204.19 147.686V147.686ZM154.472 72.3329H127.488V110.451H150.217C167.786 110.451 177.476 103.375 177.476 90.7282C177.476 78.8776 169.144 72.3329 154.474 72.3329H154.472ZM127.488 125.575V167.581H155.466C173.758 167.581 183.45 160.241 183.45 146.446C183.45 132.648 173.489 125.573 154.29 125.573H127.488V125.575Z" fill="#7E13F8"/>
</g>
<defs>
<clipPath id="clip0_7_2">
<rect width="301.18" height="240" fill="white"/>
</clipPath>
</defs>
</svg>
