<svg width="25" height="25" viewBox="0 0 25 25" fill="none" xmlns="http://www.w3.org/2000/svg">
<circle cx="12.5" cy="12.5" r="12.5" fill="white"/>
<g clip-path="url(#clip0_7_4)">
<path d="M14.742 10.3399L13.7786 9.83613C13.5181 9.69968 13.2292 9.62638 12.9352 9.62215C12.6412 9.61793 12.3503 9.68289 12.086 9.81179L10.9676 10.3525C10.6502 10.5073 10.3828 10.7482 10.196 11.0479C10.0092 11.3475 9.91053 11.6937 9.91136 12.0469V13.2797C9.91151 13.5868 9.98683 13.8892 10.1307 14.1605C10.2746 14.4318 10.4827 14.6638 10.7369 14.8362L11.8553 15.5932C12.1485 15.7915 12.4917 15.9031 12.8455 15.915C13.1993 15.927 13.5492 15.8389 13.8552 15.6608L14.7879 15.1201C15.0807 14.9492 15.4143 14.8608 15.7532 14.8643C16.0922 14.8678 16.4238 14.963 16.713 15.1399C16.986 15.3065 17.2119 15.54 17.3694 15.8183C17.5268 16.0967 17.6106 16.4106 17.6128 16.7304C17.6149 17.0502 17.5354 17.3652 17.3817 17.6457C17.2281 17.9261 17.0053 18.1627 16.7346 18.333L13.8876 20.1255C13.6009 20.306 13.2707 20.4056 12.932 20.4139C12.5933 20.4221 12.2587 20.3387 11.9635 20.1724L6.95621 17.3497C6.66554 17.1856 6.42377 16.9471 6.25573 16.6587C6.08769 16.3703 5.99942 16.0424 6 15.7086V9.87127C5.99998 9.54457 6.08518 9.22352 6.24718 8.93981C6.40919 8.65611 6.64239 8.41957 6.92377 8.25356L11.9941 5.26055C12.2807 5.09192 12.6069 5.0024 12.9394 5.00114C13.272 4.99987 13.5988 5.0869 13.8867 5.25334L16.7526 6.90981C17.0257 7.06795 17.2546 7.29232 17.4182 7.56222C17.5817 7.83213 17.6746 8.13888 17.6884 8.45416C17.7021 8.76945 17.6362 9.08311 17.4968 9.36622C17.3573 9.64933 17.1488 9.89276 16.8905 10.0741L16.6923 10.2128C16.4101 10.411 16.0789 10.5276 15.7349 10.55C15.3909 10.5725 15.0474 10.4998 14.742 10.3399Z" fill="#353535"/>
</g>
<defs>
<clipPath id="clip0_7_4">
<rect width="11.6899" height="15.4102" fill="white" transform="translate(6 5)"/>
</clipPath>
</defs>
</svg>
