<svg width="240" height="240" viewBox="0 0 240 240" fill="none" xmlns="http://www.w3.org/2000/svg">
<path d="M224.13 46.095L125.565 222.345C125.102 223.174 124.427 223.865 123.609 224.347C122.792 224.829 121.86 225.086 120.911 225.089C119.962 225.093 119.028 224.845 118.207 224.369C117.385 223.893 116.704 223.208 116.235 222.382L15.72 46.11C15.2146 45.2256 14.972 44.2153 15.0207 43.1978C15.0693 42.1803 15.4071 41.1978 15.9945 40.3656C16.5818 39.5333 17.3944 38.8859 18.3368 38.4992C19.2792 38.1125 20.3124 38.0027 21.315 38.1825L119.985 55.8225C120.612 55.9355 121.255 55.9355 121.882 55.8225L218.49 38.2125C219.489 38.03 220.519 38.1352 221.46 38.5158C222.401 38.8965 223.215 39.5368 223.806 40.3623C224.397 41.1877 224.742 42.1642 224.799 43.1779C224.856 44.1916 224.624 45.2007 224.13 46.0875V46.095Z" fill="url(#paint0_linear_108_4)"/>
<path d="M166.98 15.0525L94.05 29.34C93.4662 29.454 92.937 29.7592 92.5458 30.2073C92.1547 30.6555 91.924 31.2212 91.89 31.815L87.405 107.595C87.3802 108.011 87.4528 108.427 87.6169 108.809C87.781 109.192 88.0322 109.531 88.3504 109.8C88.6686 110.069 89.045 110.259 89.4499 110.357C89.8547 110.455 90.2768 110.457 90.6825 110.363L110.985 105.675C111.422 105.574 111.878 105.585 112.31 105.706C112.743 105.827 113.138 106.055 113.459 106.368C113.78 106.682 114.017 107.071 114.148 107.501C114.279 107.93 114.301 108.385 114.21 108.825L108.18 138.368C108.087 138.822 108.114 139.294 108.258 139.735C108.402 140.176 108.658 140.572 109.001 140.885C109.345 141.197 109.764 141.415 110.216 141.517C110.669 141.618 111.141 141.601 111.585 141.465L124.125 137.655C124.57 137.519 125.042 137.501 125.496 137.603C125.95 137.705 126.369 137.924 126.713 138.237C127.056 138.55 127.312 138.948 127.456 139.39C127.599 139.833 127.625 140.305 127.53 140.76L117.938 187.163C117.338 190.065 121.2 191.648 122.813 189.165L123.885 187.5L183.323 68.8875C183.546 68.4406 183.639 67.9402 183.593 67.4428C183.546 66.9455 183.362 66.471 183.06 66.0731C182.758 65.6752 182.351 65.3696 181.884 65.1911C181.418 65.0125 180.91 64.968 180.42 65.0625L159.517 69.09C159.068 69.1761 158.603 69.1454 158.168 69.0007C157.734 68.856 157.344 68.6022 157.035 68.2635C156.726 67.9249 156.51 67.5128 156.406 67.0666C156.303 66.6204 156.315 66.155 156.442 65.715L170.078 18.42C170.206 17.9786 170.219 17.5115 170.114 17.0638C170.01 16.6161 169.792 16.2027 169.482 15.8636C169.171 15.5246 168.779 15.2711 168.342 15.1277C167.905 14.9844 167.439 14.9559 166.987 15.045L166.98 15.0525Z" fill="url(#paint1_linear_108_4)"/>
<defs>
<linearGradient id="paint0_linear_108_4" x1="13.2639" y1="31.8815" x2="135.928" y2="198.469" gradientUnits="userSpaceOnUse">
<stop stop-color="#41D1FF"/>
<stop offset="1" stop-color="#BD34FE"/>
</linearGradient>
<linearGradient id="paint1_linear_108_4" x1="114.315" y1="18.9284" x2="136.504" y2="171.145" gradientUnits="userSpaceOnUse">
<stop stop-color="#FFEA83"/>
<stop offset="0.083" stop-color="#FFDD35"/>
<stop offset="1" stop-color="#FFA800"/>
</linearGradient>
</defs>
</svg>
