<svg width="399" height="240" viewBox="0 0 399 240" fill="none" xmlns="http://www.w3.org/2000/svg">
<g clip-path="url(#clip0_108_2)">
<path d="M199.485 0C146.291 0 113.043 26.5979 99.7447 79.7922C119.693 53.1943 142.965 43.2203 169.563 49.8701C184.737 53.6634 195.584 64.6738 207.59 76.8592C227.149 96.7122 249.784 119.688 299.225 119.688C352.42 119.688 385.667 93.0904 398.966 39.8961C379.017 66.494 355.745 76.468 329.147 69.8182C313.973 66.0249 303.126 55.0145 291.12 42.8291C271.561 22.9761 248.927 0 199.485 0ZM99.7447 119.688C46.5505 119.688 13.3027 146.286 0.00448608 199.481C19.9525 172.883 43.2247 162.909 69.8227 169.558C84.9972 173.352 95.844 184.362 107.85 196.548C127.409 216.401 150.043 239.377 199.485 239.377C252.679 239.377 285.927 212.779 299.225 159.584C279.277 186.182 256.005 196.156 229.407 189.506C214.233 185.713 203.386 174.703 191.38 162.517C171.821 142.664 149.186 119.688 99.7447 119.688Z" fill="url(#paint0_linear_108_2)"/>
</g>
<defs>
<linearGradient id="paint0_linear_108_2" x1="-11.0787" y1="76.6005" x2="333.489" y2="275.272" gradientUnits="userSpaceOnUse">
<stop stop-color="#2298BD"/>
<stop offset="1" stop-color="#0ED7B5"/>
</linearGradient>
<clipPath id="clip0_108_2">
<rect width="398.97" height="240" fill="white"/>
</clipPath>
</defs>
</svg>
