<svg width="240" height="240" viewBox="0 0 240 240" fill="none" xmlns="http://www.w3.org/2000/svg">
<path d="M44.265 204.008L27.42 15H212.58L195.712 203.978L119.887 225L44.265 204.008Z" fill="#1572B6"/>
<path d="M120 208.935L181.275 191.948L195.69 30.4575H120V208.935Z" fill="#33A9DC"/>
<path d="M120 98.9325H150.675L152.79 75.195H120V52.0125H178.125L177.57 58.23L171.877 122.115H120V98.9325V98.9325Z" fill="white"/>
<path d="M120.142 159.135L120.037 159.165L94.2225 152.19L92.5725 133.702H69.3L72.5475 170.1L120.03 183.285L120.142 183.255V159.135V159.135Z" fill="#EBEBEB"/>
<path d="M148.702 121.132L145.913 152.175L120.06 159.15V183.27L167.58 170.1L167.933 166.185L171.96 121.132H148.702V121.132Z" fill="white"/>
<path d="M120.082 52.0125V75.195H64.0875L63.6225 69.9825L62.565 58.23L62.01 52.0125H120.082V52.0125ZM120 98.9325V122.115H94.5075L94.0425 116.903L92.9925 105.15L92.4375 98.9325H120V98.9325Z" fill="#EBEBEB"/>
</svg>
