<svg width="240" height="240" viewBox="0 0 240 240" fill="none" xmlns="http://www.w3.org/2000/svg">
<path d="M0 0H240V240H0V0Z" fill="#F7DF1E"/>
<path d="M63.105 200.561L81.4706 189.446C85.0144 195.728 88.2375 201.044 95.9691 201.044C103.38 201.044 108.053 198.145 108.053 186.869V110.183H130.607V187.188C130.607 210.548 116.914 221.181 96.9356 221.181C78.8934 221.181 68.4206 211.837 63.1041 200.559L63.105 200.561ZM142.857 198.144L161.221 187.512C166.056 195.407 172.339 201.206 183.454 201.206C192.8 201.206 198.758 196.534 198.758 190.089C198.758 182.357 192.637 179.618 182.326 175.108L176.689 172.689C160.417 165.764 149.623 157.064 149.623 138.698C149.623 121.782 162.511 108.893 182.649 108.893C196.988 108.893 207.298 113.888 214.708 126.937L197.147 138.216C193.28 131.288 189.093 128.55 182.648 128.55C176.043 128.55 171.854 132.739 171.854 138.216C171.854 144.982 176.043 147.722 185.708 151.911L191.347 154.327C210.518 162.544 221.312 170.92 221.312 189.768C221.312 210.068 205.363 221.183 183.937 221.183C162.994 221.183 149.461 211.195 142.856 198.145" fill="black"/>
</svg>
