<svg width="241" height="240" viewBox="0 0 241 240" fill="none" xmlns="http://www.w3.org/2000/svg">
<g clip-path="url(#clip0_108_8)">
<path d="M236.444 109.307L131.657 4.52627C125.627 -1.50842 115.839 -1.50842 109.801 4.52627L88.0412 26.2856L115.644 53.8885C122.058 51.721 129.414 53.175 134.527 58.2881C139.665 63.4341 141.108 70.8525 138.888 77.2875L165.49 103.89C171.926 101.673 179.352 103.107 184.492 108.256C191.676 115.437 191.676 127.076 184.492 134.262C177.306 141.449 165.667 141.449 158.477 134.262C153.074 128.853 151.739 120.917 154.474 114.26L129.666 89.4516L129.663 154.736C131.462 155.625 133.104 156.8 134.527 158.214C141.711 165.396 141.711 177.036 134.527 184.227C127.341 191.41 115.697 191.41 108.521 184.227C101.337 177.036 101.337 165.397 108.521 158.215C110.243 156.493 112.289 155.129 114.541 154.202V88.3088C112.285 87.3881 110.238 86.0232 108.521 84.2953C103.078 78.8597 101.769 70.8731 104.558 64.1897L77.3481 36.9769L5.4981 108.822C-0.539404 114.863 -0.539404 124.651 5.4981 130.687L110.286 235.469C116.319 241.505 126.105 241.505 132.145 235.469L236.443 131.173C242.478 125.136 242.478 115.342 236.443 109.307" fill="#DE4C36"/>
</g>
<defs>
<clipPath id="clip0_108_8">
<rect width="240" height="240" fill="white" transform="translate(0.969971)"/>
</clipPath>
</defs>
</svg>
